<mxfile host="app.diagrams.net" agent="Mozilla/5.0 (Windows NT 10.0; Win64; x64) AppleWebKit/537.36 (KHTML, like Gecko) Chrome/129.0.0.0 Safari/537.36" version="24.7.17">
  <diagram name="Page-1" id="fTGhN-qTYLUl9TR4AodZ">
    <mxGraphModel dx="1041" dy="441" grid="1" gridSize="10" guides="1" tooltips="1" connect="1" arrows="1" fold="1" page="1" pageScale="1" pageWidth="850" pageHeight="1100" math="0" shadow="0">
      <root>
        <mxCell id="0" />
        <mxCell id="1" parent="0" />
        <mxCell id="ExdJ6bK_FJitZsKYy7Xt-3" value="" style="edgeStyle=orthogonalEdgeStyle;rounded=0;orthogonalLoop=1;jettySize=auto;html=1;" edge="1" parent="1" source="ExdJ6bK_FJitZsKYy7Xt-1" target="ExdJ6bK_FJitZsKYy7Xt-2">
          <mxGeometry relative="1" as="geometry" />
        </mxCell>
        <mxCell id="ExdJ6bK_FJitZsKYy7Xt-1" value="&lt;b&gt;&lt;font style=&quot;font-size: 24px;&quot;&gt;Start&lt;/font&gt;&lt;/b&gt;" style="ellipse;whiteSpace=wrap;html=1;" vertex="1" parent="1">
          <mxGeometry x="360" y="10" width="120" height="80" as="geometry" />
        </mxCell>
        <mxCell id="ExdJ6bK_FJitZsKYy7Xt-6" value="" style="edgeStyle=orthogonalEdgeStyle;rounded=0;orthogonalLoop=1;jettySize=auto;html=1;" edge="1" parent="1" source="ExdJ6bK_FJitZsKYy7Xt-2" target="ExdJ6bK_FJitZsKYy7Xt-5">
          <mxGeometry relative="1" as="geometry" />
        </mxCell>
        <mxCell id="ExdJ6bK_FJitZsKYy7Xt-2" value="&lt;font style=&quot;font-size: 18px;&quot;&gt;x[], y[], numValues, xMean, yMean, sumXSqr, sumYsqr, sqrtXYSqr, sumXY&lt;/font&gt;" style="whiteSpace=wrap;html=1;" vertex="1" parent="1">
          <mxGeometry x="115" y="140" width="610" height="60" as="geometry" />
        </mxCell>
        <mxCell id="ExdJ6bK_FJitZsKYy7Xt-8" value="" style="edgeStyle=orthogonalEdgeStyle;rounded=0;orthogonalLoop=1;jettySize=auto;html=1;" edge="1" parent="1" source="ExdJ6bK_FJitZsKYy7Xt-5" target="ExdJ6bK_FJitZsKYy7Xt-7">
          <mxGeometry relative="1" as="geometry" />
        </mxCell>
        <mxCell id="ExdJ6bK_FJitZsKYy7Xt-5" value="&lt;font style=&quot;font-size: 18px;&quot;&gt;numValues, x[], y[]&lt;/font&gt;" style="shape=parallelogram;perimeter=parallelogramPerimeter;whiteSpace=wrap;html=1;fixedSize=1;" vertex="1" parent="1">
          <mxGeometry x="310" y="240" width="220" height="60" as="geometry" />
        </mxCell>
        <mxCell id="ExdJ6bK_FJitZsKYy7Xt-10" value="" style="edgeStyle=orthogonalEdgeStyle;rounded=0;orthogonalLoop=1;jettySize=auto;html=1;" edge="1" parent="1" source="ExdJ6bK_FJitZsKYy7Xt-7" target="ExdJ6bK_FJitZsKYy7Xt-9">
          <mxGeometry relative="1" as="geometry" />
        </mxCell>
        <mxCell id="ExdJ6bK_FJitZsKYy7Xt-7" value="xMean" style="rounded=1;whiteSpace=wrap;html=1;" vertex="1" parent="1">
          <mxGeometry x="360" y="380" width="120" height="60" as="geometry" />
        </mxCell>
        <mxCell id="ExdJ6bK_FJitZsKYy7Xt-12" value="" style="edgeStyle=orthogonalEdgeStyle;rounded=0;orthogonalLoop=1;jettySize=auto;html=1;" edge="1" parent="1" source="ExdJ6bK_FJitZsKYy7Xt-9" target="ExdJ6bK_FJitZsKYy7Xt-11">
          <mxGeometry relative="1" as="geometry" />
        </mxCell>
        <mxCell id="ExdJ6bK_FJitZsKYy7Xt-9" value="yMean" style="rounded=1;whiteSpace=wrap;html=1;" vertex="1" parent="1">
          <mxGeometry x="360" y="480" width="120" height="60" as="geometry" />
        </mxCell>
        <mxCell id="ExdJ6bK_FJitZsKYy7Xt-17" style="edgeStyle=orthogonalEdgeStyle;rounded=0;orthogonalLoop=1;jettySize=auto;html=1;" edge="1" parent="1" source="ExdJ6bK_FJitZsKYy7Xt-11">
          <mxGeometry relative="1" as="geometry">
            <mxPoint x="420" y="740" as="targetPoint" />
          </mxGeometry>
        </mxCell>
        <mxCell id="ExdJ6bK_FJitZsKYy7Xt-11" value="&lt;font style=&quot;font-size: 18px;&quot;&gt;sumXY of (xi - xMean)(yi - yMean)&lt;/font&gt;" style="rounded=1;whiteSpace=wrap;html=1;" vertex="1" parent="1">
          <mxGeometry x="250" y="620" width="340" height="60" as="geometry" />
        </mxCell>
      </root>
    </mxGraphModel>
  </diagram>
</mxfile>
